<?xml version="1.0" standalone="no"?>
<!DOCTYPE svg PUBLIC "-//W3C//DTD SVG 20010904//EN"
 "http://www.w3.org/TR/2001/REC-SVG-20010904/DTD/svg10.dtd">
<svg version="1.0" xmlns="http://www.w3.org/2000/svg"
 width="500.000000pt" height="500.000000pt" viewBox="0 0 500.000000 500.000000"
 preserveAspectRatio="xMidYMid meet">

<g transform="translate(0.000000,500.000000) scale(0.100000,-0.100000)"
fill="#000000" stroke="none">
<path d="M1985 4075 c-136 -26 -237 -78 -322 -168 -93 -98 -127 -196 -127
-362 -1 -254 106 -418 397 -610 l137 -90 0 -504 0 -503 -37 7 c-69 12 -166 66
-220 122 -110 112 -173 276 -208 536 -6 46 -7 47 -41 47 l-34 0 0 -152 c0 -84
-3 -258 -7 -386 l-6 -234 33 4 c31 3 35 7 45 48 27 107 54 114 182 45 86 -47
156 -75 231 -95 32 -8 42 -16 40 -28 -6 -30 -64 -59 -133 -67 -60 -6 -65 -8
-65 -31 l0 -24 350 0 350 0 0 24 c0 22 -5 24 -65 31 -78 8 -125 37 -142 85 -8
25 -12 149 -12 418 l-1 382 64 0 c63 0 64 -1 98 -42 75 -92 104 -186 96 -319
-7 -123 -36 -189 -114 -266 -63 -62 -64 -63 -58 -108 6 -42 8 -44 33 -39 14 3
63 24 109 46 151 71 260 204 297 360 18 79 19 247 1 316 l-13 52 189 0 189 0
-3 -392 c-3 -357 -5 -396 -21 -426 -21 -39 -59 -57 -139 -67 -52 -7 -58 -10
-58 -31 l0 -24 350 0 350 0 0 24 c0 22 -5 24 -63 30 -35 4 -78 16 -96 27 -64
39 -62 6 -59 902 3 763 4 814 21 838 22 33 61 50 135 58 51 5 57 8 60 31 l3
25 -351 0 -350 0 0 -27 c0 -25 3 -28 36 -28 55 0 120 -20 142 -43 38 -41 42
-89 42 -469 l0 -368 -202 0 -203 1 -40 60 c-51 76 -155 176 -270 257 l-90 64
-3 -191 -2 -191 -40 0 -40 0 0 383 c0 344 2 385 18 416 26 53 60 72 136 78 63
6 66 7 66 32 l0 26 -350 0 -350 0 0 -27 c0 -26 3 -28 41 -28 135 0 186 -64
177 -223 l-3 -59 -82 61 c-176 132 -245 295 -198 474 18 68 34 97 89 155 55
59 121 91 216 104 195 29 362 -45 465 -206 61 -96 85 -168 121 -373 4 -19 11
-23 38 -23 l33 0 7 303 c3 166 8 311 9 322 2 17 -4 20 -32 20 -31 0 -36 -3
-43 -35 -29 -119 -64 -126 -194 -44 -148 94 -320 125 -509 89z"/>
<path d="M1686 1254 c-34 -33 -15 -82 45 -120 54 -33 69 -67 43 -95 -19 -21
-19 -21 1 -18 10 2 26 16 35 32 13 24 13 30 0 54 -8 14 -35 41 -60 58 -47 33
-61 65 -40 91 17 20 -4 18 -24 -2z"/>
<path d="M1776 1249 c8 -8 14 -22 14 -30 0 -12 2 -11 10 1 17 27 11 45 -14 45
-22 0 -23 -2 -10 -16z"/>
<path d="M1863 1263 c15 -4 17 -18 17 -118 0 -100 -2 -114 -17 -118 -10 -3 25
-5 78 -6 l96 -1 -5 31 c-4 30 -5 30 -16 7 -10 -19 -20 -23 -56 -23 l-45 0 -3
53 c-3 50 -2 52 23 52 17 0 29 -7 35 -22 7 -18 9 -13 9 27 0 43 -2 47 -11 28
-7 -15 -20 -23 -35 -23 -23 0 -24 3 -21 53 l3 52 42 3 c37 3 44 0 57 -25 l15
-28 1 33 0 32 -92 -1 c-51 -1 -85 -3 -75 -6z"/>
<path d="M2083 1259 c14 -8 17 -25 17 -114 0 -89 -3 -106 -17 -114 -14 -8 -6
-10 32 -10 28 1 42 3 33 6 -14 4 -18 15 -18 59 0 54 1 55 26 52 31 -3 39 -16
54 -75 10 -40 13 -43 43 -42 18 1 24 3 15 6 -11 3 -22 21 -29 46 -6 23 -17 47
-25 54 -13 9 -12 15 10 37 38 37 34 71 -11 95 -28 14 -156 15 -130 0z m115
-11 c7 -7 12 -26 12 -43 0 -38 -16 -55 -52 -55 -27 0 -28 1 -28 55 0 54 1 55
28 55 15 0 33 -5 40 -12z"/>
<path d="M2287 1262 c6 -4 32 -58 56 -120 24 -62 46 -115 49 -118 3 -3 11 9
16 26 6 17 7 28 3 25 -5 -2 -23 36 -41 86 -28 75 -31 92 -19 100 9 6 -1 9 -31
9 -25 0 -40 -4 -33 -8z"/>
<path d="M2453 1263 c9 -2 17 -14 17 -26 1 -22 1 -22 12 -2 6 11 16 23 22 27
6 4 -7 7 -29 7 -22 -1 -32 -3 -22 -6z"/>
<path d="M2533 1259 c14 -8 17 -25 17 -114 0 -89 -3 -106 -17 -114 -14 -8 -7
-10 32 -10 39 0 46 2 33 10 -15 8 -18 25 -18 114 0 89 3 106 18 114 13 8 6 10
-33 10 -39 0 -46 -2 -32 -10z"/>
<path d="M2653 1259 c14 -8 17 -25 17 -114 0 -89 -3 -106 -17 -114 -14 -8 -7
-10 32 -10 39 0 46 2 33 10 -13 7 -18 23 -18 59 l0 50 60 0 60 0 0 -50 c0 -36
-5 -52 -17 -59 -14 -8 -6 -10 32 -10 28 1 42 3 33 6 -16 4 -18 18 -18 118 0
100 2 114 18 118 9 3 -5 5 -33 6 -38 0 -46 -2 -32 -10 12 -7 17 -23 17 -59 l0
-50 -60 0 -60 0 0 50 c0 36 5 52 18 59 13 8 6 10 -33 10 -39 0 -46 -2 -32 -10z"/>
<path d="M2913 1263 c15 -4 17 -17 17 -97 0 -79 3 -97 21 -120 17 -21 29 -26
64 -26 36 0 48 5 61 25 9 13 14 30 11 37 -4 9 -6 7 -6 -4 -2 -43 -74 -65 -102
-32 -8 9 -15 52 -17 107 -4 79 -2 92 14 104 16 11 12 13 -32 12 -27 -1 -41 -3
-31 -6z"/>
<path d="M3073 1258 c12 -10 17 -32 20 -83 l3 -70 2 77 c1 50 6 78 15 81 6 3
-3 6 -22 6 -30 1 -33 -1 -18 -11z"/>
<path d="M3163 1259 c14 -8 17 -25 17 -114 0 -89 -3 -106 -17 -114 -14 -8 0
-10 53 -11 81 0 124 22 124 66 0 28 -32 64 -57 64 -16 1 -15 2 2 12 26 15 35
28 35 55 0 35 -36 53 -110 53 -49 -1 -61 -3 -47 -11z m117 -18 c15 -29 12 -49
-11 -72 l-20 -20 20 -6 c42 -11 42 -92 0 -107 -53 -18 -59 -7 -59 107 0 57 3
107 7 110 13 14 53 6 63 -12z"/>
<path d="M2456 1195 c-9 -26 -7 -32 5 -12 6 10 9 21 6 23 -2 3 -7 -2 -11 -11z"/>
<path d="M2436 1145 c-9 -26 -7 -32 5 -12 6 10 9 21 6 23 -2 3 -7 -2 -11 -11z"/>
<path d="M1671 1065 c-1 -36 2 -40 25 -41 21 -2 23 0 9 10 -8 6 -19 25 -24 41
-9 30 -9 30 -10 -10z"/>
</g>
</svg>
